<svg version="1.2" xmlns="http://www.w3.org/2000/svg" viewBox="0 0 100 100" width="100" height="100">
	<style>
		.s0 { fill: #004c95 } 
		.s1 { fill: #a9007a } 
		.s2 { fill: #de0223 } 
		.s3 { fill: #0092a7 } 
	</style>
	<g id="Layer 1">
		<g id="Layer 1 copy">
			<path id="Path 1" fill-rule="evenodd" class="s0" d="m31.78 2.65c-0.55 0.14-1.28 0.4-1.64 0.58-0.35 0.18-0.93 0.51-1.28 0.75-0.35 0.23-6.23 6-13.06 12.82-6.84 6.82-12.7 12.78-13.03 13.25-0.34 0.47-0.74 1.14-0.9 1.49-0.16 0.35-0.4 0.99-0.53 1.42-0.12 0.43-0.27 1.33-0.32 2-0.05 0.73-0.01 1.6 0.09 2.2 0.1 0.55 0.3 1.32 0.44 1.71 0.15 0.39 0.51 1.11 0.81 1.6 0.38 0.62 1.89 2.24 5.09 5.45l4.55 4.56 8.18-8.2-6.75-6.76c15.98-15.98 20.69-20.63 20.77-20.63 0.08 0 5.77 5.64 12.66 12.54l12.52 12.53c1.87-1.98 2.66-2.96 2.96-3.46 0.29-0.5 0.67-1.32 0.83-1.83 0.2-0.61 0.32-1.46 0.37-2.49 0.04-0.95 0-1.9-0.1-2.42-0.1-0.47-0.32-1.2-0.49-1.63-0.17-0.43-0.54-1.14-0.83-1.57-0.3-0.46-4.94-5.23-11.16-11.45-6.06-6.08-10.98-10.9-11.43-11.19-0.43-0.29-1.1-0.66-1.49-0.83-0.39-0.17-1.1-0.4-1.57-0.51-0.47-0.11-1.49-0.2-2.27-0.2-0.9 0.01-1.79 0.11-2.42 0.27zm-0.25 48.63l-9.36 9.36c1.77 1.76 2.65 2.51 3.1 2.81 0.45 0.29 1.17 0.67 1.6 0.83 0.43 0.16 1.2 0.38 1.71 0.49 0.51 0.11 1.29 0.2 1.74 0.2 0.45 0 1.32-0.1 1.92-0.22 0.61-0.13 1.49-0.4 1.96-0.61 0.47-0.22 1.17-0.6 1.56-0.87 0.39-0.26 3.55-3.3 7.01-6.75 3.47-3.45 6.29-6.35 6.26-6.45-0.02-0.1-1.83-1.97-4.02-4.16-2.19-2.19-4.02-3.99-4.05-3.98-0.04 0-4.29 4.21-9.43 9.35z"/>
			<path id="Path 2" fill-rule="evenodd" class="s1" d="m30.71 36.61c-0.19 0.03-0.71 0.12-1.14 0.21-0.43 0.08-1.29 0.4-1.92 0.7-0.67 0.32-1.57 0.92-2.2 1.46-0.59 0.51-5.56 5.43-11.05 10.93-7.18 7.21-10.15 10.27-10.57 10.94-0.32 0.51-0.76 1.44-0.96 2.06-0.28 0.85-0.39 1.53-0.44 2.71-0.05 1.3-0.01 1.75 0.25 2.7 0.17 0.62 0.54 1.58 0.82 2.13 0.47 0.92 1.56 2.05 13.54 14.03 9.95 9.96 13.22 13.14 13.81 13.47 0.43 0.24 1.19 0.57 1.68 0.73 0.49 0.17 1.35 0.37 1.92 0.45 0.72 0.1 1.39 0.1 2.24-0.01 0.66-0.08 1.66-0.31 2.2-0.5 0.55-0.2 1.38-0.61 1.85-0.92 0.5-0.33 2.74-2.45 5.34-5.05l4.48-4.48-8.18-8.18-6.76 6.75-20.71-20.7 25.12-25.1c-1.65-1.68-2.55-2.44-3.06-2.78-0.51-0.35-1.37-0.79-1.92-0.98-0.55-0.2-1.41-0.42-1.92-0.51-0.51-0.08-1.18-0.14-1.49-0.13-0.32 0.01-0.73 0.04-0.93 0.07zm15.33 18.51l-4.09 4.09 18.8 18.78c2.34-2.41 2.74-2.96 3.21-3.91 0.37-0.74 0.69-1.67 0.84-2.42 0.17-0.84 0.22-1.57 0.16-2.42-0.05-0.75-0.23-1.66-0.48-2.42-0.23-0.7-0.67-1.62-1.07-2.2-0.45-0.67-2.74-3.06-6.97-7.29l-6.31-6.3z"/>
			<path id="Path 3" fill-rule="evenodd" class="s2" d="m62.51 1.16c-0.47 0.11-1.24 0.36-1.71 0.57-0.47 0.21-1.23 0.66-1.7 1-0.47 0.34-2.78 2.54-5.13 4.9l-4.26 4.28 8.18 8.18 6.68-6.69 20.78 20.77-25.12 25.13c2.02 1.92 2.95 2.68 3.37 2.94 0.42 0.25 1.24 0.63 1.83 0.84 0.96 0.36 1.25 0.39 3.06 0.4 1.82 0 2.08-0.03 3.05-0.39 0.59-0.22 1.42-0.6 1.85-0.85 0.57-0.33 3.9-3.57 11.82-11.49 9.97-9.97 11.08-11.12 11.55-12.02 0.29-0.55 0.66-1.51 0.82-2.14 0.18-0.7 0.29-1.59 0.29-2.31 0-0.65-0.07-1.51-0.16-1.92-0.08-0.41-0.28-1.1-0.44-1.53-0.15-0.43-0.51-1.17-0.79-1.64-0.38-0.64-3.6-3.95-13.25-13.6-10.52-10.52-12.91-12.85-13.68-13.28-0.51-0.3-1.4-0.7-1.99-0.9-0.83-0.28-1.41-0.37-2.63-0.4-0.97-0.03-1.89 0.03-2.42 0.15zm-24.14 22.1c-0.59 0.6-1.29 1.42-1.55 1.81-0.26 0.39-0.6 1-0.75 1.35-0.16 0.35-0.4 1.09-0.54 1.63-0.16 0.6-0.26 1.49-0.26 2.21 0 0.67 0.09 1.59 0.19 2.06 0.11 0.47 0.35 1.24 0.54 1.71 0.19 0.47 0.56 1.17 0.82 1.57 0.27 0.39 3.34 3.57 6.83 7.08 3.49 3.5 6.4 6.36 6.48 6.36 0.08 0 1.96-1.81 4.17-4.02l4.03-4.02c-14.57-14.55-18.82-18.79-18.85-18.81-0.02-0.02-0.52 0.46-1.11 1.07z"/>
			<path id="Path 4" fill-rule="evenodd" class="s3" d="m68.16 35.35c-0.18 0.05-0.66 0.17-1.07 0.29-0.4 0.11-1.19 0.43-1.73 0.71-0.9 0.45-1.66 1.16-7.65 7.13l-6.66 6.63c6.24 6.23 8.11 8.04 8.19 8.04 0.08 0 4.32-4.18 9.42-9.29 5.11-5.1 9.29-9.36 9.29-9.46 0-0.1-0.59-0.72-1.32-1.39-0.95-0.88-1.63-1.37-2.45-1.77-0.63-0.3-1.56-0.65-2.07-0.77-0.55-0.14-1.46-0.22-2.27-0.21-0.75 0.01-1.5 0.05-1.68 0.09zm15.93 18.42l-4.03 4.02 6.74 6.83c-15.96 15.93-20.65 20.56-20.73 20.56-0.08 0-5.76-5.62-12.63-12.49l-12.48-12.48c-1.78 1.76-2.58 2.72-2.92 3.27-0.34 0.55-0.76 1.41-0.94 1.92-0.23 0.69-0.33 1.37-0.38 2.63-0.05 1.31 0 1.95 0.18 2.71 0.13 0.54 0.5 1.51 0.82 2.13 0.56 1.1 0.92 1.48 11.62 12.18 9.45 9.46 11.17 11.12 11.96 11.55 0.51 0.28 1.37 0.64 1.92 0.81 0.55 0.17 1.54 0.34 2.21 0.39 0.85 0.06 1.56 0.01 2.42-0.16 0.71-0.14 1.7-0.48 2.41-0.82l1.21-0.59c20.93-20.86 25.68-25.7 26.13-26.35 0.39-0.54 0.84-1.34 1-1.77 0.16-0.44 0.38-1.25 0.49-1.82 0.11-0.57 0.2-1.35 0.2-1.74 0-0.39-0.1-1.21-0.22-1.82-0.13-0.65-0.49-1.64-0.88-2.45-0.66-1.35-0.68-1.37-5.22-5.94-2.51-2.53-4.63-4.59-4.71-4.59-0.08 0-1.95 1.81-4.17 4.02z"/>
		</g>
	</g>
</svg>