<svg id="Слой_1" data-name="Слой 1" xmlns="http://www.w3.org/2000/svg" viewBox="0 0 2834.65 2834.65"><defs><style>.cls-1{fill:#3e4095;}.cls-2{fill:#d1ae6c;}</style></defs><path class="cls-1" d="M1837.85,2118.89a14.83,14.83,0,0,1-14.68-14.34c-.6-17.48-3.39-41.7.26-48.09,7-12.33,41.56-11.38,41.61-34.87l-.14-1373.28a57.84,57.84,0,0,1,21.17-44.57c.09-.09.18-.13.26-.22,64.84-53.8,168.62-124.09,240.54-170.85,25.63-16.66,49.55-37.22,73.85-24.6,12.71,6.61,20,20.44,20.05,34.78l2.41,1349.58c0,31.35,1.93,62.73,6.78,93.73,4.3,27.27,10.87,54.15,24.09,78.24,37.19,67.8,120.7,82.65,192.79,85.49a14.63,14.63,0,0,1,14,14.64v39.63a14.71,14.71,0,0,1-14.69,14.69H1837.85v0Z"/><path class="cls-1" d="M996.83,2118.89a14.84,14.84,0,0,0,14.69-14.34c.6-17.48,3.39-41.7-.26-48.09-7-12.33-41.57-11.38-41.61-34.87l.13-1373.28a57.84,57.84,0,0,0-21.17-44.57c-.08-.09-.17-.13-.26-.22-64.83-53.8-168.61-124.09-240.53-170.85C682.18,416,658.26,395.45,634,408.07c-12.71,6.61-20,20.44-20.05,34.78L611.5,1792.43c0,31.35-1.93,62.73-6.78,93.73-4.29,27.27-10.86,54.15-24.09,78.24-37.18,67.8-120.7,82.65-192.79,85.49a14.62,14.62,0,0,0-14,14.64v39.63a14.71,14.71,0,0,0,14.69,14.69H996.83v0Z"/><path class="cls-2" d="M1758.72,1077.47v298a38.4,38.4,0,0,1-19.88,33.62l-303.1,166.17a38.21,38.21,0,0,1-36.84,0l-303.1-166.17a38.32,38.32,0,0,1-19.88-33.62v-298c0-30,33-48.39,58.53-32.59l262.69,162.82a38.19,38.19,0,0,0,40.36,0l262.7-162.82C1725.75,1029.08,1758.72,1047.42,1758.72,1077.47Z"/><polygon class="cls-1" points="401.67 2268.1 454.35 2331.34 507.04 2268.1 534.69 2268.1 534.69 2428.44 503.69 2428.44 503.69 2315.84 502.79 2315.84 456.42 2372.32 452.04 2372.32 405.66 2315.84 404.76 2315.84 404.76 2428.44 373.76 2428.44 373.76 2268.1 401.67 2268.1"/><path class="cls-1" d="M594,2268.1v93.3c0,9.58,1.41,17.18,4.29,22.84s7.56,10.36,14,14a45.8,45.8,0,0,0,22.71,5.49c9.49,0,17.57-1.76,24.18-5.24a32.68,32.68,0,0,0,14.51-14.22c3-6,4.6-14.34,4.6-24.93V2268.1h31v95.23q0,32.41-19.41,49.76T635,2430.49c-14.85,0-27.69-2.67-38.6-7.91a56.06,56.06,0,0,1-24.94-22.88q-8.64-15-8.63-35.17v-96.39h31.08l0,0Z"/><path class="cls-1" d="M795.37,2268.1q22.61,0,36.84,12.49t14.21,32.59a40.91,40.91,0,0,1-7,23.83c-4.73,6.78-11.68,12.12-21,16a46,46,0,0,1,13.65,11.25c4,4.71,8.93,12.75,14.81,24,9.79,19.46,17.05,32.81,21.82,40.2H834.14q-3.54-5.28-9.62-16.88Q811.2,2386,805,2377.11c-4.12-5.91-8.12-10.13-11.94-12.62a23.65,23.65,0,0,0-13.18-3.73H768.66v67.72h-31V2268.14h57.75l0,0Zm-7,68.41q12.17,0,19.11-6.11c4.63-4.08,6.95-9.62,6.95-16.66s-2.27-12.84-6.87-16.49-11.12-5.45-19.62-5.45H768.66v44.65h19.75l0,.06Z"/><path class="cls-1" d="M964.41,2268.1l70.81,160.34H1002.5l-16.66-39H914.57l-15.51,39H866.6l66.13-160.34ZM924,2365.86h51.78L948.7,2302.4,924,2365.86Z"/><path class="cls-1" d="M1115.34,2268.1q25,0,44.53,10.22a74.21,74.21,0,0,1,30.31,28.68q10.82,18.48,10.78,41.53c0,15.36-3.61,29.58-10.87,41.72s-17.52,21.51-30.83,28.18-28.59,10-45.77,10h-65.31V2268.1Zm-3.22,136.1q25.7,0,41.26-15.4t15.55-40.45c0-16.66-5.24-31-15.68-41s-24.52-15-42.16-15h-31.91v111.9h32.94v-.06Z"/><path class="cls-1" d="M1326.94,2268.1q22,0,35.94,11.46t13.87,28.68a33.3,33.3,0,0,1-5.8,19.41c-3.86,5.58-9.45,10-16.83,13.32v1.37q16.74,3.79,26.1,15a39.7,39.7,0,0,1,9.37,26.24,42.73,42.73,0,0,1-6.83,23.83,42.05,42.05,0,0,1-18.94,15.79c-8.07,3.54-17.6,5.3-28.51,5.3h-67.16V2268.14h58.79v0Zm-8.25,66.55c8.2,0,14.65-2,19.41-5.84s7.13-9.32,7.13-16.27c0-6.18-2.19-11.12-6.53-14.73s-10.09-5.45-17.21-5.45H1299.2v42.33h19.49v0Zm7.22,69.55c10.47,0,18.42-2,23.74-5.91s8-9.76,8-17.39a19,19,0,0,0-8-16.14q-8-5.94-21.42-5.93h-29.16v45.33h26.75l.05,0Z"/><path class="cls-1" d="M1439.74,2268.1v93.3c0,9.58,1.41,17.18,4.29,22.84s7.56,10.36,14,14a45.87,45.87,0,0,0,22.72,5.49q14.24,0,24.17-5.24a32.68,32.68,0,0,0,14.51-14.22c3-6,4.6-14.34,4.6-24.93V2268.1h31v95.23q0,32.41-19.41,49.76t-54.87,17.4c-14.86,0-27.7-2.67-38.61-7.91a56.06,56.06,0,0,1-24.94-22.88q-8.64-15-8.63-35.17v-96.39h31.08l0,0Z"/><polygon class="cls-1" points="1615.1 2268.1 1615.1 2428.44 1584.09 2428.44 1584.09 2268.1 1615.1 2268.1"/><polygon class="cls-1" points="1676.24 2268.1 1676.24 2404.2 1754.04 2404.2 1754.04 2428.44 1645.24 2428.44 1645.24 2268.1 1676.24 2268.1"/><path class="cls-1" d="M1836.53,2268.1q25,0,44.52,10.22a74.3,74.3,0,0,1,30.32,28.68c7.21,12.32,10.77,26.15,10.77,41.53s-3.6,29.58-10.86,41.72-17.52,21.51-30.83,28.18-28.6,10-45.77,10h-65.31V2268.1Zm-3.18,136.1q25.7,0,41.26-15.4t15.55-40.45c0-16.66-5.24-31-15.68-41s-24.52-15-42.16-15h-31.9v111.9h32.93v-.06Z"/><polygon class="cls-1" points="1976.89 2268.1 1976.89 2428.44 1945.89 2428.44 1945.89 2268.1 1976.89 2268.1"/><polygon class="cls-1" points="2034.25 2268.1 2129.53 2379.99 2129.53 2268.1 2159.85 2268.1 2159.85 2428.44 2133.23 2428.44 2037.39 2314.68 2037.39 2428.44 2007.08 2428.44 2007.08 2268.1 2034.25 2268.1"/><path class="cls-1" d="M2273.29,2266q29.63,0,58.74,13.19v28.34q-29.18-14.82-57.37-14.82-17.58,0-31.21,7a50.42,50.42,0,0,0-21.17,20.14,57.91,57.91,0,0,0-7.51,29.32q0,24.56,16.36,39.54t43.11,15a75.91,75.91,0,0,0,14-1.26,95.34,95.34,0,0,0,16-4.81V2371H2277.8v-24.21h57.49v66.11a92.86,92.86,0,0,1-28.43,12.93,127.29,127.29,0,0,1-34.47,4.63q-25.38,0-46-10.43a78.28,78.28,0,0,1-43.67-71.27,80.62,80.62,0,0,1,11.64-42.6,79.1,79.1,0,0,1,32.46-29.62q20.8-10.57,46.42-10.57Z"/><path class="cls-1" d="M2408.94,2266a93.35,93.35,0,0,1,45.07,11.73v27.56q-24.9-15-44.18-15c-7.81,0-13.92,1.51-18.28,4.51a13.92,13.92,0,0,0-6.61,12.11q0,9.08,12.27,16.75c2.28,1.54,11.11,5.79,26.49,12.89,13.18,6.16,22.63,13.08,28.47,20.64s8.72,16.65,8.72,27.3q0,20.7-14.86,33.38t-38.52,12.66q-15.39,0-26.44-3.39t-24.87-11.63v-30.53q25.71,21.3,48.43,21.33c7.56,0,13.7-1.62,18.38-4.93s7-7.65,7-13.1c0-7.44-4.07-13.49-12.13-18.13-6.75-3.69-15.42-8.06-26.07-13.18q-18.93-8.64-28.29-20.09a40.94,40.94,0,0,1-9.38-26.62c0-13.48,5-24.17,15-32.2s23.27-12,39.71-12l.06-.05Z"/></svg>