<svg id="Слой_1" data-name="Слой 1" xmlns="http://www.w3.org/2000/svg" viewBox="0 0 341 92"><defs><style>.cls-1{fill:#fff;}</style></defs><path class="cls-1" d="M77.54,91.13a.78.78,0,0,1-.77-.76,9.44,9.44,0,0,1,0-2.54c.37-.65,2.2-.6,2.2-1.84V13.47a3.07,3.07,0,0,1,1.12-2.36h0c3.43-2.84,8.91-6.55,12.71-9,1.35-.88,2.61-2,3.9-1.3a2.08,2.08,0,0,1,1.06,1.84l.12,71.27a34.14,34.14,0,0,0,.36,5A12.8,12.8,0,0,0,99.52,83c2,3.58,6.38,4.37,10.19,4.52a.77.77,0,0,1,.74.77v2.09a.78.78,0,0,1-.78.78Z"/><path class="cls-1" d="M33.13,91.13a.77.77,0,0,0,.77-.76,9,9,0,0,0,0-2.54c-.37-.65-2.2-.6-2.2-1.84V13.47a3.07,3.07,0,0,0-1.12-2.36h0c-3.43-2.84-8.91-6.55-12.71-9-1.35-.88-2.61-2-3.9-1.3a2.05,2.05,0,0,0-1.05,1.84l-.13,71.27a31.54,31.54,0,0,1-.36,5A12.56,12.56,0,0,1,11.15,83c-2,3.58-6.38,4.37-10.18,4.52a.77.77,0,0,0-.75.77v2.09a.78.78,0,0,0,.78.78Z"/><path class="cls-1" d="M73.36,36.13V51.87a2,2,0,0,1-1,1.78l-16,8.77a2,2,0,0,1-2,0l-16-8.77a2.05,2.05,0,0,1-1.05-1.78V36.13a2,2,0,0,1,3.1-1.72L54.27,43a2,2,0,0,0,2.13,0l13.87-8.6A2,2,0,0,1,73.36,36.13Z"/><path class="cls-1" d="M139.85,13.52l9.09,10.91L158,13.52h4.77V41.18h-5.35V21.75h-.16l-8,9.75h-.75l-8-9.75h-.16V41.18H135V13.52Z"/><path class="cls-1" d="M173,13.52V29.61a8.67,8.67,0,0,0,.74,3.94A5.75,5.75,0,0,0,176.19,36a7.87,7.87,0,0,0,3.92,1,8.86,8.86,0,0,0,4.17-.91,5.59,5.59,0,0,0,2.5-2.45,9.55,9.55,0,0,0,.8-4.3V13.52h5.34V30q0,5.58-3.34,8.58t-9.47,3a15.28,15.28,0,0,1-6.66-1.36,9.65,9.65,0,0,1-4.3-4,11.88,11.88,0,0,1-1.49-6.07V13.52H173Z"/><path class="cls-1" d="M207.77,13.52a9.29,9.29,0,0,1,6.35,2.15,7.13,7.13,0,0,1,2.46,5.63,7,7,0,0,1-1.22,4.11,8,8,0,0,1-3.61,2.76,8,8,0,0,1,2.35,1.94,24.9,24.9,0,0,1,2.56,4.14c1.69,3.36,2.94,5.66,3.76,6.93h-6a29.4,29.4,0,0,1-1.66-2.91,66.06,66.06,0,0,0-3.36-5.94,7.94,7.94,0,0,0-2.06-2.18,4.11,4.11,0,0,0-2.28-.65h-1.94V41.18h-5.35V13.52h10Zm-1.21,11.8a4.84,4.84,0,0,0,3.3-1.05,3.64,3.64,0,0,0,1.2-2.88,3.49,3.49,0,0,0-1.19-2.84,5.31,5.31,0,0,0-3.38-.94h-3.33v7.7h3.4Z"/><path class="cls-1" d="M236.93,13.52l12.22,27.66H243.5l-2.87-6.74h-12.3l-2.67,6.74h-5.6l11.4-27.66Zm-7,16.86h8.94l-4.68-10.94Z"/><path class="cls-1" d="M263,13.52a16.23,16.23,0,0,1,7.68,1.76,12.75,12.75,0,0,1,5.23,5,13.83,13.83,0,0,1,1.86,7.16,13.9,13.9,0,0,1-1.87,7.2,12.54,12.54,0,0,1-5.32,4.86,17.42,17.42,0,0,1-7.9,1.73H251.38V13.52ZM262.41,37a9.68,9.68,0,0,0,7.12-2.66,9.4,9.4,0,0,0,2.68-7,9.48,9.48,0,0,0-2.7-7.06,10.06,10.06,0,0,0-7.27-2.6h-5.51V37h5.68Z"/><path class="cls-1" d="M145.18,50.17a9.45,9.45,0,0,1,6.2,2,6.15,6.15,0,0,1,2.39,5,5.77,5.77,0,0,1-1,3.34,6.74,6.74,0,0,1-2.91,2.3V63a8,8,0,0,1,4.51,2.58A6.88,6.88,0,0,1,156,70.09a7.35,7.35,0,0,1-1.18,4.11,7.23,7.23,0,0,1-3.26,2.73,12.38,12.38,0,0,1-4.92.91H135V50.18h10.15Zm-1.44,11.48a5.19,5.19,0,0,0,3.35-1,3.44,3.44,0,0,0,1.23-2.81,3.12,3.12,0,0,0-1.12-2.54,4.48,4.48,0,0,0-3-.94h-3.85v7.3h3.36Zm1.26,12a6.83,6.83,0,0,0,4.09-1,3.48,3.48,0,0,0,1.39-3,3.26,3.26,0,0,0-1.38-2.78,6,6,0,0,0-3.7-1h-5v7.83H145Z"/><path class="cls-1" d="M164.64,50.17v16.1a8.73,8.73,0,0,0,.74,3.94,5.73,5.73,0,0,0,2.42,2.41,7.87,7.87,0,0,0,3.92.95,8.89,8.89,0,0,0,4.17-.9,5.65,5.65,0,0,0,2.5-2.45,9.64,9.64,0,0,0,.79-4.31V50.17h5.35V66.6q0,5.59-3.35,8.59t-9.46,3a15.11,15.11,0,0,1-6.66-1.37,9.73,9.73,0,0,1-4.31-3.95,11.94,11.94,0,0,1-1.48-6.06V50.18h5.37Z"/><path class="cls-1" d="M194.89,50.17V77.83h-5.35V50.17Z"/><path class="cls-1" d="M205.44,50.17V73.65h13.42v4.18H200.09V50.17Z"/><path class="cls-1" d="M233.09,50.17a16.37,16.37,0,0,1,7.68,1.76,12.87,12.87,0,0,1,5.23,5,14.77,14.77,0,0,1,0,14.37,12.58,12.58,0,0,1-5.32,4.85,17.45,17.45,0,0,1-7.9,1.73H221.5V50.17Zm-.56,23.48A9.68,9.68,0,0,0,239.65,71a9.37,9.37,0,0,0,2.68-7,9.49,9.49,0,0,0-2.7-7.07,10.06,10.06,0,0,0-7.27-2.59h-5.51v19.3h5.68Z"/><path class="cls-1" d="M257.3,50.17V77.83H252V50.17Z"/><path class="cls-1" d="M267.2,50.17l16.44,19.3V50.17h5.22V77.83h-4.59L267.74,58.21V77.83h-5.23V50.17Z"/><path class="cls-1" d="M308.44,49.81a24.47,24.47,0,0,1,10.13,2.27V57a21.81,21.81,0,0,0-9.9-2.56,11.55,11.55,0,0,0-5.38,1.21,8.63,8.63,0,0,0-3.65,3.48,10,10,0,0,0-1.3,5.05A8.83,8.83,0,0,0,301.16,71a10.59,10.59,0,0,0,7.44,2.58,13.54,13.54,0,0,0,2.42-.21,16.62,16.62,0,0,0,2.76-.83V67.93h-4.57V63.75h9.92v11.4a15.92,15.92,0,0,1-4.9,2.23,21.69,21.69,0,0,1-6,.8,17.29,17.29,0,0,1-7.93-1.8,13.42,13.42,0,0,1-5.54-5,13.55,13.55,0,0,1-2-7.24,13.9,13.9,0,0,1,2-7.35,13.65,13.65,0,0,1,5.6-5.11,17.38,17.38,0,0,1,8-1.82Z"/><path class="cls-1" d="M331.84,49.81a16.09,16.09,0,0,1,7.77,2v4.75A15.27,15.27,0,0,0,332,54a5.47,5.47,0,0,0-3.15.78,2.39,2.39,0,0,0-1.14,2.09c0,1,.7,2,2.11,2.89q.6.39,4.57,2.22a13.22,13.22,0,0,1,4.92,3.56,7.54,7.54,0,0,1,1.5,4.71A7.2,7.2,0,0,1,338.24,76a9.9,9.9,0,0,1-6.65,2.18A15.65,15.65,0,0,1,327,77.6a19.86,19.86,0,0,1-4.29-2V70.33Q327.18,74,331.1,74a5.33,5.33,0,0,0,3.17-.86,2.63,2.63,0,0,0,1.2-2.25,3.56,3.56,0,0,0-2.09-3.13c-1.17-.64-2.66-1.39-4.5-2.27A13.29,13.29,0,0,1,324,62a7,7,0,0,1-1.62-4.59,6.76,6.76,0,0,1,2.6-5.56,10.64,10.64,0,0,1,6.85-2.07Z"/></svg>