<svg version="1.2" xmlns="http://www.w3.org/2000/svg" viewBox="0 0 2835 2835" width="2835" height="2835"><style>.a{fill:#fff}</style><path class="a" d="m1837.8 2118.9c-1.8 0-3.7-0.4-5.5-1.1-1.7-0.8-3.3-1.8-4.7-3.1-1.3-1.4-2.4-2.9-3.2-4.7-0.7-1.7-1.2-3.6-1.2-5.5-0.6-17.4-3.4-41.7 0.2-48 7-12.4 41.6-11.4 41.6-34.9l-0.1-1373.3c0-4.2 0.5-8.5 1.4-12.6 1-4.2 2.4-8.2 4.2-12 1.8-3.9 4.1-7.5 6.7-10.9 2.6-3.3 5.6-6.4 8.9-9.1 0.1-0.1 0.1-0.1 0.2-0.2 64.9-53.8 168.6-124.1 240.6-170.8 25.6-16.7 49.5-37.3 73.8-24.6 12.7 6.6 20 20.4 20.1 34.7l2.4 1349.6c0 31.4 1.9 62.8 6.8 93.8 4.3 27.2 10.8 54.1 24.1 78.2 37.1 67.8 120.7 82.6 192.7 85.5 1.9 0.1 3.7 0.5 5.4 1.3 1.8 0.8 3.3 1.8 4.6 3.2 1.3 1.3 2.3 2.9 3 4.7 0.7 1.7 1 3.6 1 5.4v39.7c0 1.9-0.3 3.8-1.1 5.6-0.7 1.8-1.8 3.4-3.2 4.7-1.3 1.4-3 2.5-4.7 3.2-1.8 0.8-3.7 1.1-5.6 1.1h-608.4z"/><path class="a" d="m996.8 2118.9c1.9 0 3.8-0.4 5.6-1.1 1.7-0.8 3.3-1.8 4.7-3.1 1.3-1.4 2.4-2.9 3.2-4.7 0.7-1.7 1.2-3.6 1.2-5.5 0.6-17.4 3.4-41.7-0.2-48-7-12.4-41.6-11.4-41.6-34.9l0.1-1373.3c0-4.2-0.5-8.5-1.5-12.6-0.9-4.2-2.3-8.2-4.1-12-1.8-3.9-4.1-7.5-6.7-10.9-2.6-3.3-5.6-6.4-8.9-9.1-0.1-0.1-0.2-0.1-0.2-0.2-64.9-53.8-168.7-124.1-240.6-170.8-25.6-16.7-49.5-37.3-73.8-24.6-12.7 6.6-20 20.4-20 34.7l-2.5 1349.6c0 31.4-1.9 62.8-6.8 93.8-4.3 27.2-10.8 54.1-24.1 78.2-37.1 67.8-120.7 82.7-192.8 85.5-1.8 0.1-3.7 0.5-5.4 1.3-1.7 0.7-3.2 1.8-4.5 3.2-1.3 1.3-2.3 2.9-3 4.7-0.7 1.7-1.1 3.6-1.1 5.4v39.7c0 1.9 0.4 3.8 1.2 5.6 0.7 1.8 1.8 3.4 3.1 4.7 1.4 1.4 3 2.5 4.8 3.2 1.8 0.8 3.7 1.1 5.6 1.2l608.3-0.1z"/><path class="a" d="m1758.7 1077.5v298c0 3.4-0.4 6.8-1.3 10.1-0.9 3.3-2.3 6.5-4 9.4-1.8 2.9-3.9 5.6-6.3 8-2.5 2.4-5.3 4.4-8.3 6.1l-303.1 166.2c-2.8 1.5-5.8 2.7-8.9 3.5-3.1 0.8-6.3 1.2-9.5 1.2-3.2 0-6.4-0.4-9.5-1.2-3.1-0.8-6.1-2-8.9-3.5l-303.1-166.2c-3-1.7-5.8-3.7-8.2-6.1-2.5-2.4-4.6-5.1-6.3-8-1.8-2.9-3.1-6.1-4-9.4-0.9-3.3-1.4-6.7-1.4-10.1v-298c0-30 33-48.4 58.5-32.6l262.7 162.8c3.1 1.9 6.3 3.3 9.7 4.3 3.4 1 7 1.5 10.5 1.5 3.6 0 7.1-0.5 10.5-1.5 3.4-1 6.7-2.4 9.7-4.3l262.7-162.8c25.6-15.8 58.5 2.5 58.5 32.6z"/><path fill-rule="evenodd" class="a" d="m401.7 2268.1l52.7 63.2 52.6-63.2h27.7v160.3h-31v-112.6h-0.9l-46.4 56.5h-4.4l-46.3-56.5h-0.9v112.6h-31v-160.3h27.9z"/><path class="a" d="m594 2268.1v93.3c0 9.6 1.4 17.2 4.3 22.8 2.9 5.7 7.5 10.4 14 14q2.6 1.4 5.4 2.5 2.7 1.1 5.6 1.8 2.9 0.7 5.8 1 2.9 0.3 5.9 0.2c9.5 0 17.6-1.7 24.2-5.2q2.3-1.2 4.4-2.7 2.1-1.5 4-3.3 1.8-1.8 3.4-3.9 1.5-2 2.7-4.3c3-6 4.6-14.4 4.6-25v-91.2h31v95.2q0 32.4-19.4 49.8-19.4 17.3-54.9 17.4c-14.9 0-27.7-2.7-38.6-7.9q-3.9-1.8-7.5-4.2-3.6-2.4-6.7-5.3-3.2-2.9-5.9-6.3-2.7-3.4-4.8-7.1-8.7-15-8.7-35.2v-96.4h31.1z"/><path class="a" d="m795.4 2268.1q22.6 0 36.8 12.5 14.2 12.5 14.2 32.6 0.1 3.1-0.3 6.3-0.4 3.1-1.3 6.1-0.9 3.1-2.3 5.9-1.3 2.9-3.1 5.5c-4.7 6.8-11.7 12.1-21 16q2 1.1 3.8 2.3 1.9 1.3 3.6 2.7 1.7 1.4 3.3 3 1.6 1.5 3 3.3c4 4.7 8.9 12.7 14.8 24 9.8 19.4 17 32.8 21.8 40.2h-34.6q-3.5-5.3-9.6-16.9-13.3-25.6-19.5-34.5c-4.1-5.9-8.1-10.1-11.9-12.6q-1.5-0.9-3.1-1.7-1.6-0.7-3.3-1.2-1.6-0.4-3.4-0.6-1.7-0.3-3.4-0.2h-11.2v67.7h-31v-160.4h57.7zm-7 68.4q12.2 0 19.1-6.1 7-6.1 7-16.6c0-7.1-2.3-12.9-6.9-16.5-4.6-3.7-11.1-5.5-19.6-5.5h-19.3v44.7h19.7v0.1z"/><path class="a" d="m964.4 2268.1l70.8 160.3h-32.7l-16.7-39h-71.2l-15.5 39h-32.5l66.1-160.3zm-40.4 97.8h51.8l-27.1-63.5z"/><path class="a" d="m1115.3 2268.1q25 0 44.6 10.2 4.7 2.4 9 5.5 4.3 3 8.2 6.7 3.8 3.6 7.1 7.8 3.3 4.1 6 8.7 10.8 18.5 10.8 41.5c0 15.4-3.7 29.6-10.9 41.7-7.3 12.2-17.5 21.6-30.8 28.2-13.3 6.7-28.6 10-45.8 10h-65.3v-160.3zm-3.2 136.1q25.7 0 41.2-15.4 15.6-15.4 15.6-40.4c0-16.7-5.3-31-15.7-41-10.5-10-24.5-15-42.2-15h-31.9v111.9h33c0 0 0-0.1 0-0.1z"/><path class="a" d="m1326.9 2268.1q22 0 36 11.5 13.9 11.4 13.8 28.6 0.1 2.6-0.3 5.2-0.3 2.5-1 5-0.8 2.5-1.9 4.8-1.1 2.3-2.6 4.4c-3.8 5.6-9.4 10-16.8 13.4v1.3q16.8 3.8 26.1 15 2.3 2.8 4.1 5.9 1.8 3.1 3 6.4 1.2 3.4 1.8 6.9 0.5 3.5 0.5 7.1 0 3.1-0.4 6.3-0.4 3.1-1.3 6.1-0.8 3-2.1 5.9-1.3 2.9-3 5.5-1.8 2.6-3.8 5-2.1 2.3-4.5 4.3-2.4 2-5.1 3.7-2.7 1.6-5.6 2.8c-8.1 3.5-17.6 5.3-28.5 5.3h-67.2v-160.4h58.8zm-8.2 66.6c8.2 0 14.6-2 19.4-5.8 4.8-3.9 7.1-9.4 7.1-16.3 0-6.2-2.2-11.1-6.5-14.7-4.3-3.7-10.1-5.5-17.2-5.5h-22.3v42.3h19.5zm7.2 69.6c10.5 0 18.4-2 23.7-5.9 5.4-3.9 8-9.8 8-17.4q0.1-2.4-0.4-4.7-0.5-2.3-1.5-4.4-1.1-2.1-2.6-3.9-1.5-1.8-3.5-3.2-8-5.9-21.4-5.9h-29.1v45.3h26.7 0.1z"/><path class="a" d="m1439.7 2268.1v93.3c0 9.6 1.5 17.2 4.3 22.8 2.9 5.7 7.6 10.4 14 14q2.6 1.4 5.4 2.5 2.8 1.1 5.6 1.8 2.9 0.7 5.9 1 2.9 0.3 5.8 0.2 14.3 0 24.2-5.2 2.3-1.2 4.4-2.7 2.2-1.5 4-3.3 1.9-1.8 3.4-3.9 1.5-2 2.7-4.3c3-6 4.6-14.4 4.6-25v-91.2h31v95.2q0 32.4-19.4 49.8-19.4 17.3-54.9 17.4c-14.8 0-27.7-2.7-38.6-7.9q-3.9-1.8-7.4-4.2-3.6-2.4-6.8-5.3-3.2-2.9-5.9-6.3-2.7-3.4-4.8-7.1-8.6-15-8.6-35.2v-96.4h31z"/><path fill-rule="evenodd" class="a" d="m1615.1 2268.1v160.3h-31v-160.3h31z"/><path fill-rule="evenodd" class="a" d="m1676.2 2268.1v136.1h77.8v24.2h-108.8v-160.3h31z"/><path class="a" d="m1836.5 2268.1q25 0 44.5 10.2 4.8 2.4 9.1 5.5 4.3 3 8.2 6.7 3.8 3.6 7.1 7.8 3.3 4.1 6 8.7c7.2 12.3 10.7 26.1 10.7 41.5 0 15.4-3.6 29.6-10.8 41.7-7.3 12.2-17.5 21.6-30.8 28.2-13.4 6.7-28.6 10-45.8 10h-65.3v-160.3zm-3.2 136.1q25.7 0 41.3-15.4 15.5-15.4 15.5-40.4c0-16.7-5.2-31-15.7-41-10.4-10-24.5-15-42.1-15h-31.9v111.9h32.9c0 0 0-0.1 0-0.1z"/><path fill-rule="evenodd" class="a" d="m1976.9 2268.1v160.3h-31v-160.3h31z"/><path fill-rule="evenodd" class="a" d="m2034.3 2268.1l95.2 111.9v-111.9h30.3v160.3h-26.6l-95.8-113.7v113.7h-30.3v-160.3h27.2z"/><path class="a" d="m2273.3 2266q29.6 0 58.7 13.2v28.3q-29.1-14.8-57.3-14.8-17.6 0-31.3 7-3.3 1.7-6.3 3.8-3 2.2-5.7 4.7-2.7 2.6-5 5.5-2.3 2.9-4.1 6.1-1.9 3.4-3.3 6.9-1.5 3.6-2.4 7.3-1 3.7-1.4 7.5-0.5 3.8-0.4 7.7 0 24.5 16.3 39.5 16.4 15 43.1 15 1.8 0 3.6-0.1 1.7 0 3.5-0.2 1.7-0.2 3.5-0.4 1.7-0.2 3.4-0.6 2.1-0.4 4.1-0.9 2-0.5 4-1.1 2-0.6 4-1.3 2-0.7 3.9-1.5v-26.6h-26.4v-24.2h57.5v66.1q-3.3 2.2-6.7 4.1-3.4 1.9-7 3.6-3.6 1.6-7.2 2.9-3.7 1.3-7.5 2.3-4.2 1.2-8.5 2.1-4.3 0.8-8.6 1.4-4.3 0.6-8.7 0.9-4.3 0.3-8.7 0.3-25.4 0-46-10.5c-6.6-3.2-12.7-7.4-18.2-12.4-5.4-4.9-10.1-10.6-14-16.9-3.8-6.3-6.7-13.1-8.7-20.1-1.9-7.1-2.9-14.5-2.8-21.8q0-5.6 0.7-11.2 0.7-5.5 2.2-11 1.4-5.4 3.7-10.5 2.2-5.1 5.1-9.9 2.9-4.8 6.4-9.1 3.6-4.3 7.7-8 4.1-3.8 8.7-7 4.6-3.1 9.6-5.6 20.8-10.5 46.4-10.5z"/><path class="a" d="m2408.9 2266q5.9 0 11.8 0.8 5.8 0.7 11.5 2.2 5.7 1.5 11.2 3.7 5.5 2.2 10.6 5v27.6q-24.9-15-44.2-15-11.7 0-18.2 4.5-1.6 1-2.8 2.3-1.3 1.3-2.2 2.9-0.8 1.6-1.3 3.3-0.4 1.8-0.4 3.6 0 9.1 12.3 16.8c2.3 1.5 11.1 5.8 26.5 12.9 13.2 6.1 22.6 13 28.5 20.6 5.8 7.5 8.7 16.6 8.7 27.3q0 20.7-14.9 33.4-14.8 12.7-38.5 12.6-15.4 0-26.4-3.4-11.1-3.4-24.9-11.6v-30.5q25.7 21.3 48.4 21.3c7.6 0 13.7-1.6 18.4-4.9 4.7-3.3 7-7.7 7-13.1 0-7.5-4.1-13.5-12.1-18.1-6.8-3.7-15.4-8.1-26.1-13.2q-18.9-8.7-28.3-20.1-2.3-2.8-4.1-5.9-1.7-3.2-2.9-6.6-1.2-3.4-1.8-7-0.6-3.5-0.6-7.1c0-13.5 5-24.2 15-32.2 10-8.1 23.3-12 39.7-12l0.1-0.1z"/></svg>